<mxfile host="app.diagrams.net" modified="2024-02-12T11:39:06.242Z" agent="Mozilla/5.0 (Windows NT 10.0; Win64; x64) AppleWebKit/537.36 (KHTML, like Gecko) Chrome/121.0.0.0 Safari/537.36" etag="hdaQSKhSvTB1k5UpdjQL" version="23.1.1" type="github">
  <diagram name="Page-1" id="zT4JeByvZtGIFtq0zUbu">
    <mxGraphModel dx="701" dy="1804" grid="1" gridSize="10" guides="1" tooltips="1" connect="1" arrows="1" fold="1" page="1" pageScale="1" pageWidth="850" pageHeight="1100" math="0" shadow="0">
      <root>
        <mxCell id="0" />
        <mxCell id="1" parent="0" />
        <mxCell id="pyO-_Wrlsn7nvp1Dqm6k-1" value="Draft -&amp;gt; Docusign Creation process for an &lt;b&gt;invest&lt;/b&gt;&amp;nbsp;instruction" style="text;html=1;strokeColor=none;fillColor=none;align=center;verticalAlign=middle;whiteSpace=wrap;rounded=0;" vertex="1" parent="1">
          <mxGeometry x="110" y="110" width="300" height="30" as="geometry" />
        </mxCell>
        <mxCell id="pyO-_Wrlsn7nvp1Dqm6k-4" value="" style="edgeStyle=orthogonalEdgeStyle;rounded=0;orthogonalLoop=1;jettySize=auto;html=1;" edge="1" parent="1" source="pyO-_Wrlsn7nvp1Dqm6k-2" target="pyO-_Wrlsn7nvp1Dqm6k-3">
          <mxGeometry relative="1" as="geometry" />
        </mxCell>
        <mxCell id="pyO-_Wrlsn7nvp1Dqm6k-2" value="" style="ellipse;whiteSpace=wrap;html=1;aspect=fixed;" vertex="1" parent="1">
          <mxGeometry x="40" y="190" width="80" height="80" as="geometry" />
        </mxCell>
        <mxCell id="pyO-_Wrlsn7nvp1Dqm6k-6" value="" style="edgeStyle=orthogonalEdgeStyle;rounded=0;orthogonalLoop=1;jettySize=auto;html=1;" edge="1" parent="1" source="pyO-_Wrlsn7nvp1Dqm6k-3" target="pyO-_Wrlsn7nvp1Dqm6k-5">
          <mxGeometry relative="1" as="geometry" />
        </mxCell>
        <mxCell id="pyO-_Wrlsn7nvp1Dqm6k-3" value="Submit instruction with docusign uploaded on web" style="whiteSpace=wrap;html=1;" vertex="1" parent="1">
          <mxGeometry x="180" y="200" width="120" height="60" as="geometry" />
        </mxCell>
        <mxCell id="pyO-_Wrlsn7nvp1Dqm6k-8" value="" style="edgeStyle=orthogonalEdgeStyle;rounded=0;orthogonalLoop=1;jettySize=auto;html=1;" edge="1" parent="1" source="pyO-_Wrlsn7nvp1Dqm6k-5" target="pyO-_Wrlsn7nvp1Dqm6k-7">
          <mxGeometry relative="1" as="geometry" />
        </mxCell>
        <mxCell id="pyO-_Wrlsn7nvp1Dqm6k-5" value="WEB.InvestController.SubmitLisp" style="whiteSpace=wrap;html=1;" vertex="1" parent="1">
          <mxGeometry x="380" y="200" width="180" height="60" as="geometry" />
        </mxCell>
        <mxCell id="pyO-_Wrlsn7nvp1Dqm6k-10" value="" style="edgeStyle=orthogonalEdgeStyle;rounded=0;orthogonalLoop=1;jettySize=auto;html=1;" edge="1" parent="1" source="pyO-_Wrlsn7nvp1Dqm6k-7" target="pyO-_Wrlsn7nvp1Dqm6k-9">
          <mxGeometry relative="1" as="geometry" />
        </mxCell>
        <mxCell id="pyO-_Wrlsn7nvp1Dqm6k-11" value="false" style="edgeLabel;html=1;align=center;verticalAlign=middle;resizable=0;points=[];" vertex="1" connectable="0" parent="pyO-_Wrlsn7nvp1Dqm6k-10">
          <mxGeometry x="-0.3191" y="2" relative="1" as="geometry">
            <mxPoint as="offset" />
          </mxGeometry>
        </mxCell>
        <mxCell id="pyO-_Wrlsn7nvp1Dqm6k-7" value="investReviewAndSubmitTab.followDigitalApprovalProcess?" style="rhombus;whiteSpace=wrap;html=1;" vertex="1" parent="1">
          <mxGeometry x="700" y="167.5" width="240" height="125" as="geometry" />
        </mxCell>
        <mxCell id="pyO-_Wrlsn7nvp1Dqm6k-13" value="" style="edgeStyle=orthogonalEdgeStyle;rounded=0;orthogonalLoop=1;jettySize=auto;html=1;" edge="1" parent="1" source="pyO-_Wrlsn7nvp1Dqm6k-9" target="pyO-_Wrlsn7nvp1Dqm6k-12">
          <mxGeometry relative="1" as="geometry" />
        </mxCell>
        <mxCell id="pyO-_Wrlsn7nvp1Dqm6k-9" value="WEB.InstructionsClient.SubmitLispInvestInstruction" style="whiteSpace=wrap;html=1;" vertex="1" parent="1">
          <mxGeometry x="760" y="405" width="120" height="60" as="geometry" />
        </mxCell>
        <mxCell id="pyO-_Wrlsn7nvp1Dqm6k-15" value="" style="edgeStyle=orthogonalEdgeStyle;rounded=0;orthogonalLoop=1;jettySize=auto;html=1;entryX=1;entryY=0.5;entryDx=0;entryDy=0;" edge="1" parent="1" source="pyO-_Wrlsn7nvp1Dqm6k-12" target="pyO-_Wrlsn7nvp1Dqm6k-16">
          <mxGeometry relative="1" as="geometry">
            <mxPoint x="330" y="435" as="targetPoint" />
            <Array as="points">
              <mxPoint x="370" y="435" />
              <mxPoint x="370" y="436" />
            </Array>
          </mxGeometry>
        </mxCell>
        <mxCell id="pyO-_Wrlsn7nvp1Dqm6k-12" value="Transaction.SubmitLispInvestInstruction" style="whiteSpace=wrap;html=1;" vertex="1" parent="1">
          <mxGeometry x="410" y="382.5" width="220" height="105" as="geometry" />
        </mxCell>
        <mxCell id="pyO-_Wrlsn7nvp1Dqm6k-19" value="" style="edgeStyle=orthogonalEdgeStyle;rounded=0;orthogonalLoop=1;jettySize=auto;html=1;" edge="1" parent="1" source="pyO-_Wrlsn7nvp1Dqm6k-16" target="pyO-_Wrlsn7nvp1Dqm6k-18">
          <mxGeometry relative="1" as="geometry" />
        </mxCell>
        <mxCell id="pyO-_Wrlsn7nvp1Dqm6k-16" value="EnrichInvestRequest" style="rounded=1;whiteSpace=wrap;html=1;" vertex="1" parent="1">
          <mxGeometry x="190" y="405" width="120" height="60" as="geometry" />
        </mxCell>
        <mxCell id="pyO-_Wrlsn7nvp1Dqm6k-18" value="EnrichRequestBrokerAndAdvisorDetails" style="rounded=1;whiteSpace=wrap;html=1;" vertex="1" parent="1">
          <mxGeometry x="135" y="545" width="230" height="60" as="geometry" />
        </mxCell>
        <mxCell id="pyO-_Wrlsn7nvp1Dqm6k-20" value="Looks like we eventually hit&amp;nbsp;DocuSign/send-for-signature in DigitalSignatures" style="whiteSpace=wrap;html=1;" vertex="1" parent="1">
          <mxGeometry x="160" y="1460" width="240" height="80" as="geometry" />
        </mxCell>
        <mxCell id="pyO-_Wrlsn7nvp1Dqm6k-22" style="edgeStyle=orthogonalEdgeStyle;rounded=0;orthogonalLoop=1;jettySize=auto;html=1;" edge="1" parent="1" source="pyO-_Wrlsn7nvp1Dqm6k-21" target="pyO-_Wrlsn7nvp1Dqm6k-20">
          <mxGeometry relative="1" as="geometry" />
        </mxCell>
        <mxCell id="pyO-_Wrlsn7nvp1Dqm6k-21" value="FunctionApp.DocuSignClientSingleton.SendRequestToDocuSignService" style="rounded=0;whiteSpace=wrap;html=1;" vertex="1" parent="1">
          <mxGeometry x="175" y="1350" width="210" height="60" as="geometry" />
        </mxCell>
        <mxCell id="pyO-_Wrlsn7nvp1Dqm6k-24" style="edgeStyle=orthogonalEdgeStyle;rounded=0;orthogonalLoop=1;jettySize=auto;html=1;entryX=0.5;entryY=0;entryDx=0;entryDy=0;" edge="1" parent="1" source="pyO-_Wrlsn7nvp1Dqm6k-23" target="pyO-_Wrlsn7nvp1Dqm6k-21">
          <mxGeometry relative="1" as="geometry" />
        </mxCell>
        <mxCell id="pyO-_Wrlsn7nvp1Dqm6k-23" value="FunctionApp.DocuSignEntryPoint" style="rounded=0;whiteSpace=wrap;html=1;" vertex="1" parent="1">
          <mxGeometry x="220" y="1240" width="120" height="60" as="geometry" />
        </mxCell>
        <mxCell id="pyO-_Wrlsn7nvp1Dqm6k-28" value="" style="edgeStyle=orthogonalEdgeStyle;rounded=0;orthogonalLoop=1;jettySize=auto;html=1;" edge="1" parent="1" source="pyO-_Wrlsn7nvp1Dqm6k-26" target="pyO-_Wrlsn7nvp1Dqm6k-27">
          <mxGeometry relative="1" as="geometry" />
        </mxCell>
        <mxCell id="pyO-_Wrlsn7nvp1Dqm6k-26" value="AuthorizedPersonaDetails&amp;nbsp;" style="shape=process;whiteSpace=wrap;html=1;backgroundOutline=1;" vertex="1" parent="1">
          <mxGeometry x="1150" y="700" width="280" height="60" as="geometry" />
        </mxCell>
        <mxCell id="pyO-_Wrlsn7nvp1Dqm6k-38" value="" style="edgeStyle=orthogonalEdgeStyle;rounded=0;orthogonalLoop=1;jettySize=auto;html=1;" edge="1" parent="1" source="pyO-_Wrlsn7nvp1Dqm6k-27" target="pyO-_Wrlsn7nvp1Dqm6k-37">
          <mxGeometry relative="1" as="geometry">
            <Array as="points">
              <mxPoint x="1290" y="950" />
              <mxPoint x="1290" y="950" />
            </Array>
          </mxGeometry>
        </mxCell>
        <mxCell id="pyO-_Wrlsn7nvp1Dqm6k-27" value="Transactions.InstructionsService.ProcessInstructionWithDigitalSignature" style="whiteSpace=wrap;html=1;fillColor=#d5e8d4;strokeColor=#82b366;" vertex="1" parent="1">
          <mxGeometry x="1077.5" y="830" width="425" height="60" as="geometry" />
        </mxCell>
        <mxCell id="pyO-_Wrlsn7nvp1Dqm6k-29" value="" style="endArrow=none;dashed=1;html=1;dashPattern=1 3;strokeWidth=2;rounded=0;exitX=1;exitY=0.5;exitDx=0;exitDy=0;entryX=0;entryY=0.5;entryDx=0;entryDy=0;" edge="1" parent="1" source="pyO-_Wrlsn7nvp1Dqm6k-26">
          <mxGeometry width="50" height="50" relative="1" as="geometry">
            <mxPoint x="1680" y="660" as="sourcePoint" />
            <mxPoint x="1670" y="730" as="targetPoint" />
          </mxGeometry>
        </mxCell>
        <mxCell id="pyO-_Wrlsn7nvp1Dqm6k-30" value="Transactions.BaseInstructionObject" style="whiteSpace=wrap;html=1;" vertex="1" parent="1">
          <mxGeometry x="1580" y="700" width="280" height="60" as="geometry" />
        </mxCell>
        <mxCell id="pyO-_Wrlsn7nvp1Dqm6k-32" value="Document.AuthorizedPersonalDetails" style="whiteSpace=wrap;html=1;" vertex="1" parent="1">
          <mxGeometry x="1580" y="810" width="280" height="60" as="geometry" />
        </mxCell>
        <mxCell id="pyO-_Wrlsn7nvp1Dqm6k-33" value="" style="endArrow=none;dashed=1;html=1;dashPattern=1 3;strokeWidth=2;rounded=0;entryX=0.5;entryY=1;entryDx=0;entryDy=0;exitX=0.5;exitY=0;exitDx=0;exitDy=0;" edge="1" parent="1">
          <mxGeometry width="50" height="50" relative="1" as="geometry">
            <mxPoint x="1810" y="810" as="sourcePoint" />
            <mxPoint x="1810" y="760" as="targetPoint" />
          </mxGeometry>
        </mxCell>
        <mxCell id="pyO-_Wrlsn7nvp1Dqm6k-36" value="" style="edgeStyle=orthogonalEdgeStyle;rounded=0;orthogonalLoop=1;jettySize=auto;html=1;" edge="1" parent="1" source="pyO-_Wrlsn7nvp1Dqm6k-34" target="pyO-_Wrlsn7nvp1Dqm6k-35">
          <mxGeometry relative="1" as="geometry" />
        </mxCell>
        <mxCell id="pyO-_Wrlsn7nvp1Dqm6k-34" value="Key" style="text;html=1;align=center;verticalAlign=middle;resizable=0;points=[];autosize=1;strokeColor=none;fillColor=none;" vertex="1" parent="1">
          <mxGeometry x="105" y="40" width="40" height="30" as="geometry" />
        </mxCell>
        <mxCell id="pyO-_Wrlsn7nvp1Dqm6k-35" value="&lt;ul&gt;&lt;li&gt;Green denotes possible fix points&lt;/li&gt;&lt;li&gt;Round rectangle means &#39;inside parent function&#39;&lt;/li&gt;&lt;/ul&gt;" style="whiteSpace=wrap;html=1;" vertex="1" parent="1">
          <mxGeometry x="185" y="25" width="305" height="60" as="geometry" />
        </mxCell>
        <mxCell id="pyO-_Wrlsn7nvp1Dqm6k-37" value="" style="shape=image;verticalLabelPosition=bottom;labelBackgroundColor=default;verticalAlign=top;aspect=fixed;imageAspect=0;image=data:image/png,iVBORw0KGgoAAAANSUhEUgAAA6sAAAAqCAYAAABV5s1lAAAYWklEQVR4Ae2d768c11nH+5eMsYhSI5xKVV8kBKwoolKCHArkRYC+QA1VmsRtFIVEpCIJFaENAmquL4kdu9gm4ApqJ41TYSkh9Y3vTRvittdeGWonuXdRX1QoSICQUrUvIuQHPefMmXmec54zO7O7s7v33u+Lq92dPXPO8+Mzc+c7zzmzHymKgnr/e+glurx6hHbPYiyM0X8+EWPEGAyAATAABsAAGAADYAAMgIGeGfhI70KVHXjuAm1CrALmnmGeCcvwARyDATAABsAAGAADYAAMgIGZMNC7WH3uwiYNh6t0ZPcMKriAZibQQBSCZTAABsAAGAADYAAMgAEwAAb6ZqB3seocQGUVIhI3EsAAGAADYAAMgAEwAAbAABgAAx0YmI1YxZpVQNkByr7v0KB/3AUEA2AADIABMAAGwAAYAAOLzwDEKkQUhDQYAANgAAyAATAABsAAGAADYGDhGIBYBZQLByXuci3+XS7kCDkCA2AADIABMAAGwAAY6JuB2YnVwcv08C4ktO+Eon8wBgbAABgAA2AADIABMAAGwMB2YGA2YrUoyD8VeEAvP7wLlTxUc8EAGAADYAAMgAEwAAbAABgAA2CgkYGZidXtoOzhA+5QgQEwAAbAABgAA2AADIABMAAGZsMAxCruZjTezcCBOJsDEXFGnMEAGAADYAAMgAEwAAbAgGYAYhViFWIVDIABMAAGwAAYAANgAAyAATCwcAxArALKhYMSd5T0HSXEA/EAA2AADIABMAAGwAAY2IkMQKxCrEKsggEwAAbAABgAA2AADIABMAAGFo4BiFVAuXBQ7sS7RvAZd0vBABgAA2AADIABMAAGwIBmAGIVYhViFQyAATAABsAAGAADYAAMgAEwsHAM9C5W9+zZQ3feeefCOY67FvquxcLH42OH6fEr/0d/8fXHwRJOpDNg4Ha6/7vX6fnXvj6DsbbYsbid+fv0BXrm3Z/SE396O/K+nfMM33rh+8CZddocnKVHb8A5beGvqbbDMXBohTaGa3R0D3jb7rz1LlZvueUWeuSRR3o5MW735MzdPycQr9Px4Yf05J/N+WSwEGL1E3T3P/2Ejg8hYubOZu//aEeL1ZtOvO9YYB6Ob/w3PfTZOR8j48bECTQ+zv+LPr9/i/ogfZ/EH4hV/K+WLG2B904gDoc0XDtKe+Zs70KI1QNnaH1zSEOImO1/LI8Uq4doZYNZ8H+Ds4/SDXM+Rrb/tVM/1xAQqzsZXBaA60P63cYYsED73/mL1UYb+zk4cicVFimq4laJer7gl3+oBPsY1iJfx+c6fe17b9MnJ8ltK4Z75oNtGGxhseri/wV64K33t4xYvfvcz9Sx9ud//zvRhdlW8ucwffH7G/TbvzQFTm98jF4Z1Bdn4SJtONyk9dMPRjGawniTHLtz3vfGx16hS+eXphQTfVHs4j6lCiMLwNWje5rtZIG2On+xmvufOfvtnA9dcatEfSlcqmNjSnmavY9TPn4rkR+fPwZ09tEbmvkbcSy3YnhEH5PGl22AWJ0yMz3nTOYcYnWGwZaBX4j3rS70IVbjXCVi1TF0O93/ZixYuDoHwRrid9OJ/0imcXMsJxKsrRju+QQNsTrRhUzgo90ri9AP6fjb36Wbq3P3Yfriv12nZ199gW6qtu1Qser830vHVtfp9IOS+710bA2CVTI2XbFax/rQygYNzj5PL61PfpHP9ra60IdYjc5BqVh1uT+0Qpfj6hpX5yBYy/gdopXL8TRujuVkLLdiuDp318eSPF4nfQ+x2k9cJ81L2/17F6uLu2b1AN22dI3uOR7+LtJt+3dRce9rYts1uufp5fIgXqI7qrblPtV3GoKb/+Rq2cfrdPOugm76g4vl53KMzgeln5KoqlLvxBXR0EaKo7DtOh1X7cV2VQm0pvwGsar3yQoMvnC/IqqL1vRI0cb3I/pWdhZU3PoGPVPZKH3TMS8K0UfV3tuhqqAu9mnbtI3v/6NPXKPlqj8/fnux6u3/sqoeplVGM5ZdYlQUlNr5V4Z4Zp9i36Mp3tW4vF3batqp8pOLt4+lJVb5RJVu1+My9+nYsR+COWPaOudMHT9GG3fSrPxv9kWdYHmfUZXVKE7Pv/bygs1YqMWdqlr+q1Hxe/Ideq46Jnyc0spmfXyq/niq8R9doGe+I8Umty1FqOhXi0/f320n/pOOKqEaxmHBKteatvdH21dyZPnN545qinHgTY4ZbAmvXkTX3P2UnjhxUfie+qzajr1u1hKrbJO1/UZ67JVBNU2usQKbVG036PzhY7S6fpoeLApi8TfgqtXGeVoq/8dV26rKLotmrtxs0vo3z9Kaq3Jt0PklYYfYPxxne4+tCRv1GK5NZVvU13BIm6V9oa9i77Fy3LiCZPTb+X+1EEk5YcQ+S3HkpjJ6W9ZkBVVsr6qAoSoYT/kNYlXtkxcYfOG+GfoaDs2KU92m7Ef0rewsCmKBXtkofYvjJ/qo2js7dBXU5Sppa7Rx/R+gM+ub0fgiD9IGKyfO/su6ephUGe1YdolRURh2PmuIZ7Y39j3KdzUub1e22naq/OTi7eJkiVU+dxjb1bjMrzF27IdgLp22zjmLjsnI73AMV/43+hLOw/6V9xlVWdVxWqOjjzTMWKh8y3Gpxw+243W8uPQuVhc+MSxOE9Hphewdn90d3a3TQXYi9NA36GO79HbvM4vb1+mOp6+K/pfojqVce6uP/DYnTgwhmF74F1TwxbQ13Te3XZ7ciyAcpFBkoSA/l3a6C/JI/Fjbyv7Zh6X1H9OXxYOTeNtB86E2bMcHSWWu5suobPLYSYws272PsSByMVbiuRZIqbg1xmc/b32DarHqx4n3dUJKjVPnvU2MsnbGvjshFuXN2uZy/gEtDX4ipjtbcavtrPNgx5K/N9mcNEatGDbsNP3W7eybErqN85v7ahKrCYc+RuOtBf9F+v2Dp+ncuXP5v2+9QF/6lGGnOq7j7724e/rCz3SFkoVpTrhV/XnRZYlLFoJqexB7SnD6/WPB60Rk0u6D7MOPWMguVdXVSfzJTMt1tsfrer0gjW0vilg8c7xL8ap8KrdPaxqwy4klSn2+9x5bFdOBvXDcUFNhrW0FFU4MshAU3JQCUYlB3napFqvhvKDHLciLz7K/Ujz6frxolTZxWzVGEMabcfXY7zsYDKjeP19R7qOy6i6iqwts4wLf5cfezvta031z20Ns3WsQDlIo8sW0/Fwer+6CvLLR59Pa5vtngTWg1QuXxYOTeNuq/VAbtsMYs7LVEIs8diIiLNudj7Eg8gJQiecmEWGMz7YdWhFi1Y0TCxAvpNQ41fmvTYzydsa+O4aiGFrbChfrAQ02ha1W3Co7xbFrxpK/t9mcNEatGDbsNP1W7TI3JVQb7zf3Fce64rK84aK+dzFqWAvexJkxvhwL7wWLLWMFsVqwqIwqnr/2D/SpVqKSRe0/u+ppCp+vxP7Go59vFLzpfm2TyBe86VpSUxDkLuhz2xU8PI4hEpUIY5tte5x/SVvvoxNZuQqXsiH0b9iRtCvj58RIJJzLCqQthllM/bhem5uNjRcaseB0FctkGnAUk0wcOEYffeKH9CXjScdtYuQErareljGIYmOywW0SXzM+NtivOE768/Zkx2cxF8R6wxhmjDJjKXuiOITvOG45FrjNVMVq8C9jS7Bpfq95walFoM2Wqzgm1dKCWHCmQi7q48l36C8rkam/u+3Ev9PjVYUxIyJDTFlMVjZM4o89zt3n/icjlL9AD7x+Ta05zbfV/vl82+ONz0KTWF2rhFxerMX7swi8pIVqiHn82lqsCtHsRG8tPJVdmf5cbPYeowtKaKdCN7QL1V8ZUzVO7MdYn1NBokRQ1actCHIX9Lnt0hcvXOLpm5EI4/H5AjyzttW21fuUVsEsjsv+I6Gl7Kxi4Pd3YiQSzr4CmRHDLKYu1Gtzs7FxQkOIuDCuJVajmNhxYHsP0Jk30hhXFdPEDxkjL2hHr/202eAYJr5mfMzbL+0x+nMxyo/PNxWCWM+PYccosT3kY+Qrxy3HAvszXbEa/GtiFt9pjmYVD4jVoiCetitFZfw5JKOe3humDvOrn+ob2tSvvrLK04DrbeO/T6cx8jS0VIyZgiB3QZ/brk4gkeAK38WiorEvu+rYVmT5+LEdLcUq23IljQ33Y8cxTOkTVcfYv+B3VsTUVdd6Kp9+arAXnmGs9DUVwH5671IrIaqnucZVYltMBx7jHMefy3ZmTGy/9bRzv7/JJsdViNXOMWrkLvgXTyevY2/FPByvUxOryTTteFq+sFNwFuyYzauvRJpPA1YikG2Np7eW8UwqhtzWi0Z5TMTi1U3tFdN/ZVt+X7cfIeqUnV38ieNvjZP6oe2UFdeGsc38WuPFNnX5HIvNel+uUvqqY7MA1ZXQfH8JmxlxqfvjympLsdo0ZTeZ4pvxaW89VVnaO3WxaokHrr4kIsYWBLkL+tx26UtOhMaiorEvS8i5qatxNbPmSdnAbHMMWopVtmUziQ33bUwHldNHRf+xf7U9GRFTVcPkdFMpaktxLsdT72XbEIcOQlRNczXiauagHCcS1W1z7mJi+j2sxKeKW7Jm1Y9fi9XuMWrkTpwTXYVfxZvzZMU8xD6TZ9Fn8I1tUJXTpE3qF8RriPP8X3sXq4u7ZlUEX1VSjUprKWjt6cJNldWckBVjJwdM+p0TWEllxhYUpiDIXdDntiub7HH09FarOif9mKVYbZ6u2lqAmMLM+2T3YfsYTpT82k2c+7HG2YfHSplpsi/Ocfy5zGUSEy9UE8GX4cpkk1kT/Xb2NzOWjLsTw8aNHR5rJpVVdTzVeV2Op2kb7ZQf7vt+pwGPFquZaa9KKJa8mP540SenBreq3Lq+eN9u04BH+2PZaonH5rF1nhZZrAaRmBF2Zc6UmDTXulpxK6cLt5oGHOwIU4wzlVUWq8YaVh3vYEvGpxmJVSe+kgtt62IbYtWtyRSiU+ezvQAZR6wmD1hS56m2wjMwx6/j7MP7eVGuBFEfYtUJ1VTw2QLSZpPzU8e6u7/2WDKG5brn5OYFjzWbyqpmMOR1c4TA1T6kfeD7acWkd7G6NX5ntV6j6tahJmtYc2tNR00DnoZYzYkMW1CYgkBUrhQ4bS70c9N7hcDwfdr2uO+Stv4A7iZMuP9RlVVuI9dZGieKXCzUP6wm8Z0bI5cnYQPHu2ltY2zDmALX54OFpK4um2zwmAkHmVzGeYw/B/uT/nwMcuOr7V1jlBlLcq76DzaWsZ2XWPXT5kfxLNgRdkvfpvfei8i6ilmPrcRkbspua7FaPqRoIB7cxPvKzw2+uiqsWcGN14i29MccyxKrBak4mPvVMWs1/bnqwx5v/NzmKqF6e76yqNsVBYvAgVjrWvuZ2GhWVtP9lRhumgbMQnktWitbxS22Y55ilYWHUSmzpm+ySDGqV3XlSvvV5kK/dZUtrs6JWNZiRI7fUZi0qaxyG7nOUtgQeMrFInwfXrOxyY3RJAZLO7jP5gqcjA+/7xgj6W9SebfZYH8TXzO5jPMYf26OXW58vb1rjBLbZQzce91/sNHHdl5itXmmQKgCd2MlZgef61w3xwJiNRw07kFL33BPCE4frMSi1FjX6p4OnBOk05oGbIg0vkB3T9zVYoSTzgJwWVRh3WeeYie21XBYguZ9Oq4qPi2FC8fRFILpGGH86YpVW0RaY3DV0ZwmGz00Kt3Xj8HT/5JqIj9lN1mzmh58Lh9JLmzbQz6bpwFzfMX05cCzlQtTCPLYsWjibel6aFkBdTk0+nP+ZXizRGMa45Rhz0suRilfrqosGE7H8H3ZeaxzZlfQ6+8Dx07sZ29CZOw2Ylf1F3I401dfOVwafCim3RZUxA9YMoSlE5Cc81hEctt35fRYHztL9Nki1BKcfpsey1d7ZbXWTz/mh4SN8MeMcU48WvaEJwRHfjrf0ycF+1hFbd1UaV0xtttx/D5BDyy/6B+udear9Hum/bHY5P1SweieDmwIwXqqsGDdTcdNRaN7UJJ60FH8QCP/wKb4KcPtxWpB7um9agxvV/rgpW5i1fWrqrbe1vhhTu64/IXP0MHT/qFmZ//a+L1aFh25SmEiKljcbIopmP4zPx1XVdlCbi1BsxE9wTcZw8fIEiqmEEzGCLnvKMTYjlwc2B/+PhGq1hgZ8Z/E2djXjWFVtP1Tdpsrq+y3z0eSC9P20N6+UVGd0xO7Q37qdaChrSkErbjyNmP9cZzztD/vn82bJRqNGHeNUcKXryrXQs8YoymP4diY1prVTG7T2JXHRbAtqQSX31f24XPgetJXiNUKKv9ApHsan+4br1X1Fdl71AOayn7in7k5fk2ti+2WOL4gr9fZ+bWq4YI7Fiphe9mehVEQt+ICvhqfRY1cLyaFVNiv/D4INCcGwj6yfRDL4Tv3GttXihHVJvgWi+/Y79DOvwZ7nC+RrXI9WSpMrbWrqZ3cr/K1FKlhW9WvNbYV65K1StCJGChfzDgG31vGKDd+nO9YeEe+BLuCzy6uMudxfyZvEZPCb/smis1IsKViNxy7lg3hu/JV2V/6HPJQ5bF68nWItX6t2+XXwHruZI5yvss2c/6H5oQV+8oiqhSDIUfWk4Djn65hkRr6kO3DttBXeI1FbZkjL9B0zK1KL+ffPSk49KfWtQbx2MGfiBW3Jjf7dN4oPs6GWHyGfBprezO+Jz+JI+Oo7BshVl2VUq7Hq9/XT8gN9oUpuHUbvoA1xRrbYPRttlXrTP1vuzpROxzSxvnD5U/X+DHd/lW/XgxzxZd/Akf1rfoU+4bYVH3474KvYVz3MylKmPoYqO+dfUv2MyYaxCpf0No/A1OLAje+FHHhYrecNszCKPRTX8DXeQpVHNdPJGrDfv67MN3TiwGrfRBj4Tv3Km1zMY1sl9Ob4wt0FiLye/U+2ON90bZK7iyxp32w7eR+43Y8ZthW92uNbcXa/3+x/Ne+mHEMvreMUW78ON/xuk3tS7Ar+OzjKsV23J/JW8Sk5EP2Vf//bROjdgz7PrX93ucwRp1Hf8NDsiPfi3blE36lH+q9zFHOd9kmnGvKKvdm41ra2u86Xtg2SSx6F6tbYs2qgHCSYGJfHIxgAAyAga3OQK6yutX9gv04NsEAGAADkzHgBbQt4BHbyWKbj1/vYrUvw9FvPqmIDWIDBsAAGBiPAa7w1r/XOl4fiD3iBgbAABgAA2BgOgxArKKqak97QlwQFzAABnYAA/GUYr0edjr/aHHBgjiCATAABsAAGBiPAYjVHXAxhoNjvIMDcUPcwAAYAANgAAyAATAABsDA/BjoXaxizer8kosDC7EHA2AADIABMAAGwAAYAANgYKsy0LtY3Rq/swqAtyrAsBvsggEwAAbAABgAA2AADICB7ckAxCqmAWNdHhgAA2AADIABMAAGwAAYAANgYOEYgFgFlAsHJe6Mbc87Y8gr8goGwAAYAANgAAyAATDQhYHexSrWrALILkCiLXgBA2AADIABMAAGwAAYAANggBnoXawCNIAGBsAAGAADYAAMgAEwAAbAABgAA10ZgFitpgEfoW//7Y/o/H27MS22iok+oHbf/U36za99h37lk3p7V+jQfmfHb//yQbp69SAt79/ZccBxgPyDATAABsAAGAADYKCZAYjVSph1EKt3naXvv/Ajelf8TUvk/upXX6cfDs7Sw5VdzQmcJeAQq1PIxf4HaeXqGRoO/d+ll+7K3By5lZZXTlXthpf+mD63YEzc9+LfOPuurhyg/R1sg1idAkdJvD9OT527Qtde/UqGpz7GnEaf++jkW0MaDt+ji6funYvt+06+RcPhkN67eIruTeI6DR+b++DxW+Xt40/RucFFOnVvc3+z/J+AsZALMAAGwAAY6JuB3sXq9luzyqL2Cp359Z/r4cLq0/SPP7hGq8//1kR9//z952n/Q5+ZqI++wZt6/5EIDGKQX7uKKbYtCLHh8BStLP+yj2U8xoQCksfIi1Vx8rvvKbo0aqzYtnErlzxWKaTr2EXCeXicXvpcad99T9G/dBSrbXLPgvbtrJAXsekgLpxIVr79If3dypHalw59tfFhpm32naS33ltEIbOPTr452q59J98cLVZZrF1hYZv5m8T/fSfpzTmJ1aKDCG0tbLcyy7B9Z/3vRr6RbzAABkYw0LtY3X6/s3qEvv3st+ihXeNdMDddwE6rqrojxaoEvY24k+0z7ytxEwlF3j6YgkCbmlh1AlOI6qIgb7sQlRkfUx7vohcv6b5kGyfiZTy2iFh18ZB2VzckxonR9I99GePu7xe5qjplsbr+Kn2lZFkLt3bjZGM7T7FaFKR9aeCrg7DN+tr6XNBgB/rAxSUYAANgAAzMiIH/Bywrh6QRUWwDAAAAAElFTkSuQmCC;" vertex="1" parent="1">
          <mxGeometry x="970" y="930" width="749" height="33.5" as="geometry" />
        </mxCell>
        <mxCell id="pyO-_Wrlsn7nvp1Dqm6k-43" value="" style="edgeStyle=orthogonalEdgeStyle;rounded=0;orthogonalLoop=1;jettySize=auto;html=1;" edge="1" parent="1" source="pyO-_Wrlsn7nvp1Dqm6k-39" target="pyO-_Wrlsn7nvp1Dqm6k-42">
          <mxGeometry relative="1" as="geometry" />
        </mxCell>
        <mxCell id="pyO-_Wrlsn7nvp1Dqm6k-39" value="Transaction.DigitalSignatureController.DigitalSignatureSubmit" style="rounded=0;whiteSpace=wrap;html=1;" vertex="1" parent="1">
          <mxGeometry x="110" y="920" width="330" height="60" as="geometry" />
        </mxCell>
        <mxCell id="pyO-_Wrlsn7nvp1Dqm6k-40" value="DigitalSignatures.DocumentSubmitClient.SubmitInstructionAsync" style="rounded=0;whiteSpace=wrap;html=1;" vertex="1" parent="1">
          <mxGeometry x="80" y="750" width="400" height="60" as="geometry" />
        </mxCell>
        <mxCell id="pyO-_Wrlsn7nvp1Dqm6k-41" style="edgeStyle=orthogonalEdgeStyle;rounded=0;orthogonalLoop=1;jettySize=auto;html=1;entryX=0.519;entryY=-0.1;entryDx=0;entryDy=0;entryPerimeter=0;" edge="1" parent="1" source="pyO-_Wrlsn7nvp1Dqm6k-40" target="pyO-_Wrlsn7nvp1Dqm6k-39">
          <mxGeometry relative="1" as="geometry" />
        </mxCell>
        <mxCell id="pyO-_Wrlsn7nvp1Dqm6k-42" value="" style="rounded=1;whiteSpace=wrap;html=1;" vertex="1" parent="1">
          <mxGeometry x="520" y="920" width="120" height="60" as="geometry" />
        </mxCell>
      </root>
    </mxGraphModel>
  </diagram>
</mxfile>
